<?xml version="1.0" encoding="UTF-8"?>
<svg id="Layer_1" xmlns="http://www.w3.org/2000/svg" version="1.1" viewBox="0 0 1000 1000">
  <!-- Generator: Adobe Illustrator 29.1.0, SVG Export Plug-In . SVG Version: 2.1.0 Build 142)  -->
  <defs>
    <style>
      .st0 {
        fill: #22569b;
      }

      .st1 {
        fill: #f2922f;
      }

      .st2 {
        fill: #f79533;
      }

      .st3 {
        fill: #f5952f;
      }

      .st4 {
        fill: #f5952e;
      }

      .st5 {
        fill: #f3922c;
      }

      .st6 {
        fill: #f89732;
      }

      .st7 {
        fill: #f4932e;
      }

      .st8 {
        fill: #0a5c2f;
      }

      .st9 {
        fill: #4bb1e4;
      }

      .st10 {
        fill: #f39534;
      }

      .st11 {
        fill: #106433;
      }

      .st12 {
        fill: #f39533;
      }

      .st13 {
        fill: #196338;
      }

      .st14 {
        fill: #f6962f;
      }

      .st15 {
        fill: #f59633;
      }
    </style>
  </defs>
  <path class="st9" d="M774.8,362.9c98.7-1.2,177,79.1,187.4,174.9,2.5,23.8-3.3,15.2-21.9,21.9-27.4,9.8-49.8,28.5-74.6,42.8-5.7,1-27.4-13.3-35-17-217.5-104.5-482.2-101.4-693.6,17.4-5.1.2-30.3-19-37.3-23.1-16.8-9.8-32-18.2-51-23.3-3.9-1-10.6.8-12.1-3.7-1-3.3,4.9-34.2,6.3-40.2,28.9-119.6,146.7-180.7,261.2-131.5,81.9,35.2,105.9,106.7,212.2,98.7,97.9-7.4,138.5-115.3,258.5-116.8h0Z"/>
  <path class="st8" d="M335.4,751.1c2.1-27.7-28.5-44.7-49-57.4-14.1-8.8-82.8-44.2-87.9-52.8-2.3-4.1-3.1-33.2-1-36.3,60.8-8.8,129.9-.2,187.8,21.5,124.1,46.9,211.4,164.7,194,300.5-23.6,6.6-60.6,26-84.4,23.6-48.7-4.9-140.1-51-182.7-77.2-86-52.8-138.9-110.4-206.3-182.5-25.4-27.4-58.2-56.7-81.1-85-16.2-20.3-16-35.4,14.5-32,43.2,4.9,144.4,88.9,187,115.9,35.4,22.5,72.3,42.2,109.2,61.7h0Z"/>
  <path class="st5" d="M623.8,220.6c45.5,30.5,81.3,79.7,92.6,133.8-10.2,3.5-20.7,7-30.5,11.5-85,39.5-126,126.8-237,87.1-42.2-15-67.4-48.8-103-70.9-19.5-12.1-43.8-19.5-64.3-29.5,9.6-35.4,27.2-70.3,52.6-97.1,76-80.1,196.6-97.3,289.6-35h0Z"/>
  <path class="st8" d="M802.4,640.7c-1.6,5.7-82.3,48.3-94.4,56.1-18.8,12.1-45.5,28.9-43.4,54.3,36.9-20.1,74.6-39.1,110.2-61.7,42-26.6,142.6-111.2,185-115.9,23.1-2.5,33.6,6.1,19.1,27-17,24.8-56.1,58.4-78.2,82.1-66.6,72.1-119.6,131.1-204.4,184.4-23.6,14.8-69,42.4-94.8,49.8-3.7,1.2-2.5-.6-2.9-2.9-1.6-12.5.8-27.9,0-41-4.7-70.5-38.7-136.2-85.8-187.4.4-2.9,24.2-19.5,28.5-22.5,74.2-50.2,171.9-70.7,260.4-59-1.8,9.6,2.3,27.9,0,36.1h0l.4.6Z"/>
  <path class="st0" d="M775,581.1c.4,3.3-4.5,1.8-6.8,2-29.3,1-56.5,1.8-85.4,6.4-66,10.7-132.5,39.1-182.5,83.2-52-44.2-116.1-72.9-183.7-83.6-30.7-4.9-61.5-5.1-92.4-7.2,171.5-73.5,378.6-71.1,551-1h0l-.2.2Z"/>
  <path class="st6" d="M543.3,68c.2-.6,2.3-.8,2.9-2.3,2-4.5,1.4-13.3,8-16l4.1,81.1c0,18.6-37.3,15.4-37.3-2s18.6-52.4,22.3-61h0v.2Z"/>
  <path class="st15" d="M653.9,79l-21.3,84.6c-5.7,8.8-39.9.4-32.2-18.2,16.4-19.3,30.1-43.8,47.1-62.3,2-2.1,2.9-4.9,6.6-4.1h-.2Z"/>
  <path class="st2" d="M234.8,250.1c-10.2-8.6-22.5-18.8-31.8-27.7-2.5-2.5-7.8-6.8-8-10.4,3.3-2.9,81.1,25,84,28.3,6.3,7.6-6.6,28.3-15,29.9-7.8,1.6-22.7-14.7-28.9-20.1h-.2Z"/>
  <path class="st3" d="M347.2,79c18.8,20.5,34.4,44.5,52,66.2,7.2,16.6-25.2,29.9-32.8,17.2-7-27.5-15-55.5-19.1-83.4h0Z"/>
  <path class="st14" d="M149.8,299.8c-.4-3.3,4.5-1.8,6.8-2,27.5-1,54.5,3.3,82.1,3.9,13.5,2.3,4.1,37.9-9.6,35.2l-79.3-37.1h0Z"/>
  <path class="st1" d="M448.8,51.6l29.3,75.4c4.3,17.8-34.4,23.1-36.7,7.2l3.7-50.4c.8-9.4-1.2-20.3,0-29.5.4-2.7,1-5.7,3.9-2.9h0l-.2.2Z"/>
  <path class="st7" d="M295.6,157.9c5.5,4.1,34.4,26,35.6,29.9,3.9,12.9-15.8,28.9-28.5,23.6l-41.2-74.8,2.9-2.9c9.8,9,20.9,16.2,31.5,24.2h-.2Z"/>
  <path class="st10" d="M806.3,209.9c-12.9,12.5-25.6,26.2-39.1,38.1-4.7,4.1-21.7,19.9-25.4,21.5-14.1,5.9-31.5-25.2-16.2-31.8l80.7-27.5h0v-.2Z"/>
  <path class="st12" d="M737.9,133.7l-42,76.2c-10.6,9.4-35-12.7-28.5-22.5l70.5-53.7h0Z"/>
  <path class="st4" d="M847.3,297.8l-21.5,12.7c-15.8,3.7-41.8,24.2-56.3,26-14.1,1.8-22.5-32.4-9.4-34.8l86.9-3.9h.2Z"/>
  <path class="st13" d="M179.1,606.5v23.4c-2.1,2.3-20.5-10.7-21.5-12.7-1.6-3.3,2.1-3.1,3.9-3.9,2.1-1.2,17-7.6,17.6-6.8h0Z"/>
  <polygon class="st11" points="821.9 630 821.9 606.5 843.4 617.3 821.9 630"/>
</svg>